<?xml version="1.0" encoding="UTF-8" standalone="no"?>
<!DOCTYPE svg PUBLIC "-//W3C//DTD SVG 1.1//EN"
 "http://www.w3.org/Graphics/SVG/1.1/DTD/svg11.dtd">
<!-- Generated by graphviz version 2.43.0 (0)
 -->
<!-- Title: %3 Pages: 1 -->
<svg width="672pt" height="104pt"
 viewBox="0.00 0.00 672.00 104.00" xmlns="http://www.w3.org/2000/svg" xmlns:xlink="http://www.w3.org/1999/xlink">
<g id="graph0" class="graph" transform="scale(1 1) rotate(0) translate(4 100)">
<title>%3</title>
<polygon fill="white" stroke="transparent" points="-4,4 -4,-100 668,-100 668,4 -4,4"/>
<!-- RawData -->
<g id="node1" class="node">
<title>RawData</title>
<polygon fill="none" stroke="black" points="329.5,-96 225.5,-96 225.5,-63 329.5,-63 329.5,-96"/>
<text text-anchor="start" x="245" y="-81.8" font-family="Times,serif" font-size="14.00">RawData</text>
<text text-anchor="start" x="233.5" y="-70.2" font-family="Times,serif" font-size="11.00">via:</text>
<text text-anchor="start" x="254.5" y="-70.2" font-family="Times,serif" font-style="italic" font-size="11.00">load_events</text>
</g>
<!-- EventData -->
<g id="node2" class="node">
<title>EventData</title>
<polygon fill="none" stroke="black" points="516,-47 424,-47 424,-14 516,-14 516,-47"/>
<text text-anchor="start" x="432" y="-32.8" font-family="Times,serif" font-size="14.00">EventData</text>
<text text-anchor="start" x="437.5" y="-21.2" font-family="Times,serif" font-size="11.00">via:</text>
<text text-anchor="start" x="458.5" y="-21.2" font-family="Times,serif" font-style="italic" font-size="11.00">process</text>
</g>
<!-- RawData&#45;&gt;EventData -->
<g id="edge1" class="edge">
<title>RawData:e&#45;&gt;EventData:w</title>
<path fill="none" stroke="black" d="M330.5,-79.5C373.75,-79.5 376.85,-37.86 413.82,-31.35"/>
<polygon fill="black" stroke="black" points="414.33,-34.82 424,-30.5 413.74,-27.85 414.33,-34.82"/>
</g>
<!-- SOverQ -->
<g id="node7" class="node">
<title>SOverQ</title>
<polygon fill="none" stroke="black" points="664,-47 588,-47 588,-14 664,-14 664,-47"/>
<text text-anchor="start" x="598" y="-32.8" font-family="Times,serif" font-size="14.00">SOverQ</text>
<text text-anchor="start" x="596" y="-21.2" font-family="Times,serif" font-size="11.00">via:</text>
<text text-anchor="start" x="617" y="-21.2" font-family="Times,serif" font-style="italic" font-size="11.00">reduce</text>
</g>
<!-- EventData&#45;&gt;SOverQ -->
<g id="edge9" class="edge">
<title>EventData:e&#45;&gt;SOverQ:w</title>
<path fill="none" stroke="black" d="M516,-30.5C544.38,-30.5 553.88,-30.5 577.98,-30.5"/>
<polygon fill="black" stroke="black" points="578,-34 588,-30.5 578,-27 578,-34"/>
</g>
<!-- MonitorHistogram -->
<g id="node3" class="node">
<title>MonitorHistogram</title>
<polygon fill="none" stroke="black" points="352,-59 203,-59 203,-26 352,-26 352,-59"/>
<text text-anchor="start" x="211" y="-44.8" font-family="Times,serif" font-size="14.00">MonitorHistogram</text>
<text text-anchor="start" x="230" y="-33.2" font-family="Times,serif" font-size="11.00">via:</text>
<text text-anchor="start" x="251" y="-33.2" font-family="Times,serif" font-style="italic" font-size="11.00">load_monitor</text>
</g>
<!-- MonitorHistogram&#45;&gt;EventData -->
<g id="edge2" class="edge">
<title>MonitorHistogram:e&#45;&gt;EventData:w</title>
<path fill="none" stroke="black" d="M352,-42.5C380.77,-42.5 389.62,-33.06 413.88,-30.93"/>
<polygon fill="black" stroke="black" points="414.16,-34.42 424,-30.5 413.86,-27.42 414.16,-34.42"/>
</g>
<!-- WavelengthMin -->
<g id="node4" class="node">
<title>WavelengthMin</title>
<polygon fill="none" stroke="black" points="129.5,-52 1.5,-52 1.5,-29 129.5,-29 129.5,-52"/>
<text text-anchor="middle" x="65.5" y="-36.8" font-family="Times,serif" font-size="14.00">WavelengthMin</text>
</g>
<!-- WavelengthMin&#45;&gt;EventData -->
<g id="edge3" class="edge">
<title>WavelengthMin:e&#45;&gt;EventData:w</title>
<path fill="none" stroke="black" d="M130.5,-40.5C163.4,-40.5 170.27,-28.85 203,-25.5 268.88,-18.76 285.82,-23.2 352,-25.5 380.43,-26.49 389.83,-29.65 413.96,-30.36"/>
<polygon fill="black" stroke="black" points="413.95,-33.86 424,-30.5 414.05,-26.86 413.95,-33.86"/>
</g>
<!-- WavelengthMin&#45;&gt;MonitorHistogram -->
<g id="edge6" class="edge">
<title>WavelengthMin:e&#45;&gt;MonitorHistogram:w</title>
<path fill="none" stroke="black" d="M130.5,-40.5C159.08,-40.5 168.64,-42.07 192.91,-42.43"/>
<polygon fill="black" stroke="black" points="192.98,-45.93 203,-42.5 193.02,-38.93 192.98,-45.93"/>
</g>
<!-- WavelengthMax -->
<g id="node5" class="node">
<title>WavelengthMax</title>
<polygon fill="none" stroke="black" points="131,-23 0,-23 0,0 131,0 131,-23"/>
<text text-anchor="middle" x="65.5" y="-7.8" font-family="Times,serif" font-size="14.00">WavelengthMax</text>
</g>
<!-- WavelengthMax&#45;&gt;EventData -->
<g id="edge4" class="edge">
<title>WavelengthMax:e&#45;&gt;EventData:w</title>
<path fill="none" stroke="black" d="M131,-11.5C229.32,-11.5 254.03,-13.17 352,-21.5 380.49,-23.92 389.71,-29.13 413.92,-30.27"/>
<polygon fill="black" stroke="black" points="413.92,-33.77 424,-30.5 414.08,-26.78 413.92,-33.77"/>
</g>
<!-- WavelengthMax&#45;&gt;MonitorHistogram -->
<g id="edge7" class="edge">
<title>WavelengthMax:e&#45;&gt;MonitorHistogram:w</title>
<path fill="none" stroke="black" d="M131,-11.5C162.17,-11.5 167.31,-36.31 192.99,-41.54"/>
<polygon fill="black" stroke="black" points="192.71,-45.03 203,-42.5 193.38,-38.06 192.71,-45.03"/>
</g>
<!-- Filename -->
<g id="node6" class="node">
<title>Filename</title>
<polygon fill="none" stroke="black" points="107,-85 24,-85 24,-62 107,-62 107,-85"/>
<text text-anchor="middle" x="65.5" y="-69.8" font-family="Times,serif" font-size="14.00">Filename</text>
</g>
<!-- Filename&#45;&gt;RawData -->
<g id="edge8" class="edge">
<title>Filename:e&#45;&gt;RawData:w</title>
<path fill="none" stroke="black" d="M108.5,-73.5C156.6,-73.5 170.95,-78.71 214.43,-79.42"/>
<polygon fill="black" stroke="black" points="214.47,-82.92 224.5,-79.5 214.53,-75.92 214.47,-82.92"/>
</g>
<!-- Filename&#45;&gt;MonitorHistogram -->
<g id="edge5" class="edge">
<title>Filename:e&#45;&gt;MonitorHistogram:w</title>
<path fill="none" stroke="black" d="M108.5,-73.5C149.08,-73.5 157.54,-47.38 192.85,-43.09"/>
<polygon fill="black" stroke="black" points="193.22,-46.58 203,-42.5 192.81,-39.59 193.22,-46.58"/>
</g>
</g>
</svg>
