<?xml version="1.0" encoding="UTF-8" standalone="no"?>
<!-- Created with Inkscape (http://www.inkscape.org/) -->

<svg
   width="321.22833mm"
   height="47.144173mm"
   viewBox="0 0 321.22833 47.144173"
   version="1.1"
   id="svg5"
   xmlns="http://www.w3.org/2000/svg"
   xmlns:svg="http://www.w3.org/2000/svg">
  <defs
     id="defs2" />
  <g
     id="layer1"
     transform="translate(-22.73,-14.7925)">
    <path
       style="fill:#cccccc;stroke:#000000;stroke-width:2.165"
       d="m 23.8125,15.875 v 44.979166 h 50.270832 v -15.875 h 15.875 v -15.875 h -15.875 V 15.875 Z"
       id="path238" />
    <path
       style="fill:#cccccc;stroke:#000000;stroke-width:2.165"
       d="m 108.47917,15.875 v 13.229166 h 15.875 v 15.875 h -15.875 v 15.875 h 47.62499 L 177.27083,37.041666 156.10416,15.875 Z"
       id="path242" />
    <path
       style="fill:#cccccc;stroke:#000000;stroke-width:2.165"
       d="M 187.85413,15.875 209.0208,37.041667 187.85413,60.854166 H 248.7083 V 42.333333 15.875 Z"
       id="path244" />
    <path
       style="fill:#cccccc;stroke:#000000;stroke-width:2.165"
       id="path298"
       d="m -29.104168,248.7084 a 7.9375,7.9375 0 0 1 -3.96875,6.87408 7.9375,7.9375 0 0 1 -7.9375,0 7.9375,7.9375 0 0 1 -3.96875,-6.87408 h 7.9375 z"
       transform="rotate(-90)" />
    <rect
       style="fill:#cccccc;stroke:none;stroke-width:2.18966"
       id="rect1100"
       width="2.6458333"
       height="13.532125"
       x="247.21877"
       y="30.275955" />
    <path
       style="fill:#cccccc;stroke:#000000;stroke-width:2.165"
       d="m 333.37501,15.875 c 0.0231,10.469742 -2.64583,21.166672 10.58333,21.166672 -13.22916,0 -10.58333,13.22916 -10.58333,23.8125 H 275.16665 V 42.333332 15.875 Z"
       id="path244-5" />
    <path
       style="fill:#ffffff;stroke:#000000;stroke-width:2.165"
       id="path298-6"
       d="m -29.104176,275.16678 a 7.9375,7.9375 0 0 1 -3.96875,6.87408 7.9375,7.9375 0 0 1 -7.9375,0 7.9375,7.9375 0 0 1 -3.96875,-6.87408 h 7.9375 z"
       transform="rotate(-90)" />
    <rect
       style="fill:#ffffff;stroke:none;stroke-width:2.18966"
       id="rect1100-2"
       width="2.6458333"
       height="13.532125"
       x="273.67712"
       y="30.275959" />
    <text
       xml:space="preserve"
       style="font-weight:300;font-size:12.7px;font-family:Lato;-inkscape-font-specification:'Lato Light';fill:#000000;stroke:none;stroke-width:2.165"
       x="27.777018"
       y="40.644234"
       id="text2082"><tspan
         id="tspan2080"
         style="font-style:normal;font-variant:normal;font-weight:normal;font-stretch:normal;font-family:Lato;-inkscape-font-specification:Lato;stroke-width:2.165"
         x="27.777018"
         y="40.644234">Filename</tspan></text>
    <text
       xml:space="preserve"
       style="font-style:normal;font-variant:normal;font-weight:normal;font-stretch:normal;font-size:12.7px;font-family:Lato;-inkscape-font-specification:Lato;fill:#000000;stroke:none;stroke-width:2.165"
       x="132.82079"
       y="34.395836"
       id="text2136"><tspan
         id="tspan2134"
         style="stroke-width:2.165"
         x="132.82079"
         y="34.395836">Raw</tspan><tspan
         style="stroke-width:2.165"
         x="132.82079"
         y="50.270836"
         id="tspan2138">data</tspan></text>
    <text
       xml:space="preserve"
       style="font-style:normal;font-variant:normal;font-weight:normal;font-stretch:normal;font-size:12.7px;font-family:Lato;-inkscape-font-specification:Lato;fill:#000000;stroke:none;stroke-width:2.165"
       x="206.90419"
       y="34.395836"
       id="text2868"><tspan
         id="tspan2866"
         style="stroke-width:2.165"
         x="206.90419"
         y="34.395836"> Masks</tspan><tspan
         style="stroke-width:2.165"
         x="206.90419"
         y="50.270836"
         id="tspan2870">applied</tspan></text>
    <text
       xml:space="preserve"
       style="font-style:normal;font-variant:normal;font-weight:normal;font-stretch:normal;font-size:12.7px;font-family:Lato;-inkscape-font-specification:Lato;fill:#000000;stroke:none;stroke-width:2.165"
       x="283.6333"
       y="32.808338"
       id="text3600"><tspan
         id="tspan3598"
         style="stroke-width:2.165"
         x="283.6333"
         y="32.808338">Reduced</tspan><tspan
         style="stroke-width:2.165"
         x="283.6333"
         y="48.683338"
         id="tspan3602">result</tspan></text>
    <text
       xml:space="preserve"
       style="font-style:normal;font-variant:normal;font-weight:normal;font-stretch:normal;font-size:12.7px;font-family:Lato;-inkscape-font-specification:Lato;fill:#cccccc;stroke:none;stroke-width:2.165;stroke-opacity:1"
       x="116.41666"
       y="193.14583"
       id="text4678"><tspan
         id="tspan4676"
         style="stroke:none;stroke-width:2.165"
         x="116.41666"
         y="193.14583"></tspan></text>
    <text
       xml:space="preserve"
       style="font-style:normal;font-variant:normal;font-weight:normal;font-stretch:normal;font-size:12.7px;font-family:Lato;-inkscape-font-specification:Lato;fill:#000000;stroke:none;stroke-width:2.165;stroke-opacity:1"
       x="116.41666"
       y="201.08333"
       id="text4732"><tspan
         id="tspan4730"
         style="fill:#000000;stroke-width:2.165"
         x="116.41666"
         y="201.08333"></tspan></text>
  </g>
</svg>
