<?xml version="1.0" encoding="UTF-8" standalone="no"?>
<!-- Created with Inkscape (http://www.inkscape.org/) -->

<svg
   width="321.22833mm"
   height="107.99833mm"
   viewBox="0 0 321.22833 107.99833"
   version="1.1"
   id="svg4743"
   xmlns="http://www.w3.org/2000/svg"
   xmlns:svg="http://www.w3.org/2000/svg">
  <defs
     id="defs4740" />
  <g
     id="layer1"
     transform="translate(97.570347,-43.169287)">
    <path
       style="fill:#cccccc;stroke:#000000;stroke-width:2.165;stroke-opacity:1"
       d="m 67.55381,44.251787 21.16667,21.16666 -21.16667,23.8125 v 15.875003 l 13.22917,10.58334 v 13.22916 l -13.22917,10.58334 v 10.58333 h 60.85417 V 44.251787 Z"
       id="path4564" />
    <path
       style="fill:#cccccc;stroke:#000000;stroke-width:2.165"
       d="m -96.487847,44.251787 v 44.97917 h 50.27083 v -15.875 h 15.875 v -15.875 h -15.875 v -13.22917 z"
       id="path238-9" />
    <path
       style="fill:#cccccc;stroke:#000000;stroke-width:2.165"
       d="m -11.82118,44.251787 v 13.22917 h 15.875 v 15.875 h -15.875 v 15.875 h 47.62499 l 21.16667,-23.8125 -21.16667,-21.16667 z"
       id="path242-1" />
    <path
       style="fill:#cccccc;stroke:#000000;stroke-width:2.165"
       d="m 213.07466,76.001747 c 0.0231,10.46974 -2.64583,21.16667 10.58333,21.16667 -13.22916,0 -10.58333,13.229163 -10.58333,23.812513 H 154.8663 V 102.46008 76.001747 Z"
       id="path244-5-9" />
    <path
       style="fill:#ffffff;stroke:#000000;stroke-width:2.165"
       id="path298-6-3"
       d="m -89.23114,154.86642 a 7.9375,7.9375 0 0 1 -3.96875,6.87408 7.9375,7.9375 0 0 1 -7.9375,0 7.9375,7.9375 0 0 1 -3.96875,-6.87408 h 7.9375 z"
       transform="rotate(-90)" />
    <rect
       style="fill:#ffffff;stroke:none;stroke-width:2.18966"
       id="rect1100-2-6"
       width="2.6458333"
       height="13.532125"
       x="153.37677"
       y="90.402924" />
    <text
       xml:space="preserve"
       style="font-weight:300;font-size:12.7px;font-family:Lato;-inkscape-font-specification:'Lato Light';fill:#000000;stroke:none;stroke-width:2.165"
       x="-92.523323"
       y="69.021027"
       id="text2082-0"><tspan
         id="tspan2080-6"
         style="font-style:normal;font-variant:normal;font-weight:normal;font-stretch:normal;font-family:Lato;-inkscape-font-specification:Lato;stroke-width:2.165"
         x="-92.523323"
         y="69.021027">Filename</tspan></text>
    <text
       xml:space="preserve"
       style="font-style:normal;font-variant:normal;font-weight:normal;font-stretch:normal;font-size:12.7px;font-family:Lato;-inkscape-font-specification:Lato;fill:#000000;stroke:none;stroke-width:2.165"
       x="12.520435"
       y="62.772629"
       id="text2136-2"><tspan
         id="tspan2134-6"
         style="stroke-width:2.165"
         x="12.520435"
         y="62.772629">Raw</tspan><tspan
         style="stroke-width:2.165"
         x="12.520435"
         y="78.647629"
         id="tspan2138-1">data</tspan></text>
    <text
       xml:space="preserve"
       style="font-style:normal;font-variant:normal;font-weight:normal;font-stretch:normal;font-size:12.7px;font-family:Lato;-inkscape-font-specification:Lato;fill:#000000;stroke:none;stroke-width:2.165"
       x="83.42881"
       y="89.230988"
       id="text2868-8"><tspan
         id="tspan2866-7"
         style="stroke-width:2.165"
         x="83.42881"
         y="89.230988"> Masks</tspan><tspan
         style="stroke-width:2.165"
         x="83.42881"
         y="105.10599"
         id="tspan2870-9">applied</tspan></text>
    <text
       xml:space="preserve"
       style="font-style:normal;font-variant:normal;font-weight:normal;font-stretch:normal;font-size:12.7px;font-family:Lato;-inkscape-font-specification:Lato;fill:#000000;stroke:none;stroke-width:2.165"
       x="163.33295"
       y="92.935303"
       id="text3600-2"><tspan
         id="tspan3598-0"
         style="stroke-width:2.165"
         x="163.33295"
         y="92.935303">Reduced</tspan><tspan
         style="stroke-width:2.165"
         x="163.33295"
         y="108.8103"
         id="tspan3602-2">result</tspan></text>
    <path
       style="fill:#cccccc;stroke:#000000;stroke-width:2.165"
       id="path298-7"
       d="m -89.230988,128.40804 a 7.9375,7.9375 0 0 1 -3.96875,6.87407 7.9375,7.9375 0 0 1 -7.937502,0 7.9375,7.9375 0 0 1 -3.96875,-6.87407 h 7.937502 z"
       transform="rotate(-90)" />
    <rect
       style="fill:#cccccc;stroke:none;stroke-width:2.18966"
       id="rect1100-0"
       width="2.6458333"
       height="13.532125"
       x="126.91842"
       y="90.402771" />
    <path
       style="fill:#cccccc;stroke:#000000;stroke-width:2.165;stroke-opacity:1"
       d="m -11.82118,99.814287 h 47.62499 v 5.291663 l 13.22917,10.58334 v 13.22916 l -13.22917,10.58334 v 10.58333 h -47.62499 z"
       id="path4674" />
    <text
       xml:space="preserve"
       style="font-style:normal;font-variant:normal;font-weight:normal;font-stretch:normal;font-size:12.7px;font-family:Lato;-inkscape-font-specification:Lato;fill:#000000;stroke:none;stroke-width:2.165;stroke-opacity:1"
       x="-7.5878639"
       y="122.03937"
       id="text4736"><tspan
         id="tspan4734"
         style="stroke-width:2.165"
         x="-7.5878639"
         y="122.03937">Masking</tspan><tspan
         style="stroke-width:2.165"
         x="-7.5878639"
         y="137.91437"
         id="tspan4738">bounds</tspan></text>
  </g>
</svg>
